<?xml version="1.0" standalone="no"?>
<!DOCTYPE svg PUBLIC "-//W3C//DTD SVG 20010904//EN"
 "http://www.w3.org/TR/2001/REC-SVG-20010904/DTD/svg10.dtd">
<svg version="1.0" xmlns="http://www.w3.org/2000/svg"
 width="512.000000pt" height="512.000000pt" viewBox="0 0 512.000000 512.000000"
 preserveAspectRatio="xMidYMid meet">

<g transform="translate(0.000000,512.000000) scale(0.100000,-0.100000)"
fill="#ffffff" stroke="none">
<path d="M2165 4311 c-90 -22 -172 -90 -215 -176 l-25 -50 0 -885 0 -885 28
-57 c34 -70 101 -131 173 -158 53 -19 76 -20 708 -20 459 0 663 -3 685 -11 18
-7 139 -108 274 -230 l242 -219 5 179 c5 163 7 182 26 208 40 53 78 67 204 73
91 5 126 11 162 29 65 31 125 93 156 159 l27 57 3 835 c2 593 0 852 -8 895
-20 105 -89 193 -185 237 l-50 23 -1090 2 c-600 0 -1103 -2 -1120 -6z m1810
-656 c16 -15 25 -36 25 -55 0 -19 -9 -40 -25 -55 l-24 -25 -731 0 -731 0 -24
25 c-16 15 -25 36 -25 55 0 19 9 40 25 55 l24 25 731 0 731 0 24 -25z m0 -400
c16 -15 25 -36 25 -55 0 -19 -9 -40 -25 -55 l-24 -25 -731 0 -731 0 -24 25
c-16 15 -25 36 -25 55 0 19 9 40 25 55 l24 25 731 0 731 0 24 -25z m0 -360
c16 -15 25 -36 25 -55 0 -19 -9 -40 -25 -55 l-24 -25 -411 0 -411 0 -24 25
c-16 15 -25 36 -25 55 0 19 9 40 25 55 l24 25 411 0 411 0 24 -25z"/>
<path d="M725 3471 c-90 -22 -172 -90 -215 -176 l-25 -50 0 -845 0 -845 28
-57 c59 -119 164 -178 319 -178 110 0 165 -21 200 -78 21 -34 23 -52 28 -208
l5 -172 230 210 c127 115 241 217 255 226 22 15 83 17 670 22 l645 5 47 23
c65 32 125 94 156 160 25 53 27 68 30 235 l4 177 -464 0 c-513 0 -535 2 -636
63 -73 44 -143 116 -180 185 -62 115 -62 120 -62 744 l0 568 -502 -1 c-277 -1
-516 -4 -533 -8z"/>
</g>
</svg>
